<svg width="16" height="22.399999999999995" xmlns="http://www.w3.org/2000/svg">

 <g>
  <title>Layer 1</title>
  <path stroke="null" id="svg_1" fill="#b2b2b2" d="m8.93764,-0.18188l7.03028,7.48318l0,15.15367l-15.95032,0l0,-22.63685l8.92005,0zm0.38426,2.42056l0,4.65316l4.37137,0l-4.37137,-4.65316zm-7.97609,18.80193l13.29204,0l0,-12.73376l-6.6454,0l0,-7.07373l-6.6454,0l0,19.80683l-0.00124,0.00066zm5.31719,-1.41501l0,-4.24437l2.65828,0l0,4.24437l-2.65828,0zm-3.98774,0l0,-7.07373l2.65828,0l0,7.07373l-2.65767,0l-0.00062,0zm7.97547,0l0,-9.90375l2.65767,0l0,9.90375l-2.65828,0l0.00062,0z"/>
 </g>
</svg>