<svg width="16" height="22.4" xmlns="http://www.w3.org/2000/svg">

 <g>
  <title>Layer 1</title>
  <path stroke="null" id="svg_1" fill="#3bb2f7" d="m8.91951,0.02924l7.02985,7.37603l0,14.93669l-15.94936,0l0,-22.31272l8.91951,0zm0.38423,2.38591l0,4.58654l4.37111,0l-4.37111,-4.58654zm-7.9756,18.53272l13.29123,0l0,-12.55143l-6.645,0l0,-6.97244l-6.645,0l0,19.52323l-0.00124,0.00065zm5.31686,-1.39475l0,-4.1836l2.65812,0l0,4.1836l-2.65812,0zm-3.98749,0l0,-6.97244l2.65812,0l0,6.97244l-2.65751,0l-0.00062,0zm7.97499,0l0,-9.76194l2.65751,0l0,9.76194l-2.65812,0l0.00062,0z"/>
 </g>
</svg>