<svg width="24" height="24" xmlns="http://www.w3.org/2000/svg" fill="none">

 <g>
  <title>Layer 1</title>
  <path id="svg_1" fill="#ff0000" d="m12,15c1.6569,0 3,-1.3431 3,-3c0,-1.6569 -1.3431,-3 -3,-3c-1.6569,0 -3,1.3431 -3,3c0,1.6569 1.3431,3 3,3z"/>
  <path id="svg_2" fill="#ff0000" d="m21.81343,12c0,5.5228 -4.4772,10 -10,10c-5.52285,0 -10,-4.4772 -10,-10c0,-5.52285 4.47715,-10 10,-10c5.5228,0 10,4.47715 10,10zm-2,0c0,4.4183 -3.5817,8 -8,8c-4.41828,0 -8,-3.5817 -8,-8c0,-4.41828 3.58172,-8 8,-8c4.4183,0 8,3.58172 8,8z" clip-rule="evenodd" fill-rule="evenodd"/>
 </g>
</svg>